HIERARCHY
ROOT Hips
{
	OFFSET 0.000000 1.471914 24.280096
	CHANNELS 6 Xposition Yposition Zposition Xrotation Yrotation Zrotation
	JOINT Spine
	{
		OFFSET 0.000000 0.900110 1.860670
		CHANNELS 6 Xposition Yposition Zposition Xrotation Yrotation Zrotation
		JOINT Spine1
		{
			OFFSET 0.000000 0.400320 2.270309
			CHANNELS 6 Xposition Yposition Zposition Xrotation Yrotation Zrotation
			JOINT Spine2
			{
				OFFSET 0.000000 0.200920 2.296560
				CHANNELS 6 Xposition Yposition Zposition Xrotation Yrotation Zrotation
				JOINT Spine3
				{
					OFFSET 0.000000 0.000000 2.305330
					CHANNELS 6 Xposition Yposition Zposition Xrotation Yrotation Zrotation
					JOINT Neck
					{
						OFFSET 0.000000 -0.864490 6.051487
						CHANNELS 6 Xposition Yposition Zposition Xrotation Yrotation Zrotation
						JOINT Head
						{
							OFFSET 0.000000 -0.550429 3.121674
							CHANNELS 6 Xposition Yposition Zposition Xrotation Yrotation Zrotation
							End Site
							{
								OFFSET 0.000000 0.000000 3.731750
							}
						}
					}
					JOINT RightShoulder
					{
						OFFSET -0.788280 -1.313800 4.256718
						CHANNELS 6 Xposition Yposition Zposition Xrotation Yrotation Zrotation
						JOINT RightArm
						{
							OFFSET -3.915130 0.000000 0.000000
							CHANNELS 6 Xposition Yposition Zposition Xrotation Yrotation Zrotation
							JOINT RightForeArm
							{
								OFFSET -6.914910 0.000000 0.000000
								CHANNELS 6 Xposition Yposition Zposition Xrotation Yrotation Zrotation
								JOINT RightHand
								{
									OFFSET -6.096219 0.000000 0.000000
									CHANNELS 6 Xposition Yposition Zposition Xrotation Yrotation Zrotation
									JOINT RightHandEnd
									{
										OFFSET -1.749950 0.000000 0.000000
										CHANNELS 6 Xposition Yposition Zposition Xrotation Yrotation Zrotation
										End Site
										{
											OFFSET -1.749950 0.000000 0.000000
										}
									}
									JOINT RightHandThumb1
									{
										OFFSET -0.699980 -1.166630 -0.466648
										CHANNELS 6 Xposition Yposition Zposition Xrotation Yrotation Zrotation
										End Site
										{
											OFFSET -1.690319 -0.452920 0.000000
										}
									}
								}
							}
						}
					}
					JOINT LeftShoulder
					{
						OFFSET 0.788280 -1.313800 4.256718
						CHANNELS 6 Xposition Yposition Zposition Xrotation Yrotation Zrotation
						JOINT LeftArm
						{
							OFFSET 3.915130 0.000000 0.000000
							CHANNELS 6 Xposition Yposition Zposition Xrotation Yrotation Zrotation
							JOINT LeftForeArm
							{
								OFFSET 6.914910 0.000000 0.000000
								CHANNELS 6 Xposition Yposition Zposition Xrotation Yrotation Zrotation
								JOINT LeftHand
								{
									OFFSET 6.096219 0.000000 0.000000
									CHANNELS 6 Xposition Yposition Zposition Xrotation Yrotation Zrotation
									JOINT LeftHandEnd
									{
										OFFSET 1.749950 0.000000 0.000000
										CHANNELS 6 Xposition Yposition Zposition Xrotation Yrotation Zrotation
										End Site
										{
											OFFSET 1.749950 0.000000 0.000000
										}
									}
									JOINT LeftHandThumb1
									{
										OFFSET 0.699980 -1.166630 -0.466648
										CHANNELS 6 Xposition Yposition Zposition Xrotation Yrotation Zrotation
										End Site
										{
											OFFSET 1.690319 -0.452920 0.000000
										}
									}
								}
							}
						}
					}
				}
			}
		}
	}
	JOINT RightUpLeg
	{
		OFFSET -2.338570 -0.252550 -0.551512
		CHANNELS 6 Xposition Yposition Zposition Xrotation Yrotation Zrotation
		JOINT RightLeg
		{
			OFFSET 0.000000 0.000000 -10.744959
			CHANNELS 6 Xposition Yposition Zposition Xrotation Yrotation Zrotation
			JOINT RightFoot
			{
				OFFSET 0.000000 -0.000001 -10.930849
				CHANNELS 6 Xposition Yposition Zposition Xrotation Yrotation Zrotation
				JOINT RightToeBase
				{
					OFFSET 0.000000 -4.087269 -1.487650
					CHANNELS 6 Xposition Yposition Zposition Xrotation Yrotation Zrotation
					End Site
					{
						OFFSET 0.000000 -1.891870 0.000000
					}
				}
			}
		}
	}
	JOINT LeftUpLeg
	{
		OFFSET 2.338570 -0.252550 -0.551512
		CHANNELS 6 Xposition Yposition Zposition Xrotation Yrotation Zrotation
		JOINT LeftLeg
		{
			OFFSET 0.000000 0.000000 -10.744959
			CHANNELS 6 Xposition Yposition Zposition Xrotation Yrotation Zrotation
			JOINT LeftFoot
			{
				OFFSET 0.000000 -0.000001 -10.930849
				CHANNELS 6 Xposition Yposition Zposition Xrotation Yrotation Zrotation
				JOINT LeftToeBase
				{
					OFFSET 0.000000 -4.087269 -1.487650
					CHANNELS 6 Xposition Yposition Zposition Xrotation Yrotation Zrotation
					End Site
					{
						OFFSET 0.000000 -1.891870 0.000000
					}
				}
			}
		}
	}
}
MOTION
Frames: 6
Frame Time: 0.041667
0.000042 27.699772 32.303871 -13.066013 -1.016586 -17.053548 -0.000014 0.900094 1.860695 20.583038 1.633047 -0.954347 0.000001 0.400274 2.270313 -0.000003 -0.000001 0.000003 0.000021 0.200893 2.296534 0.000003 -0.000001 0.000002 0.000021 -0.000026 2.305324 0.000012 0.000003 -0.004639 -0.000008 -0.864476 6.051476 4.371187 0.383825 178.909825 0.000016 -0.550436 3.121719 -0.000000 0.000001 -0.000004 -0.788278 -1.313737 4.256779 -123.862694 45.576746 -75.958329 -3.915078 0.000000 -0.000031 -0.000001 -0.000001 0.000001 -6.914879 -0.000010 -0.000007 0.000005 0.000006 -39.572009 -6.096190 -0.000016 0.000004 -0.000163 -0.000132 -0.000067 -1.749926 -0.000011 0.000012 -0.000002 -0.000001 0.000007 -0.700007 -1.166625 -0.466660 -0.000001 -0.000001 0.000006 0.788262 -1.313791 4.256731 -119.222741 -39.375412 83.293317 3.915159 -0.000004 -0.000012 0.000001 -0.000001 0.000001 6.914913 -0.000023 -0.000017 -0.000009 0.000001 23.783262 6.096200 0.000054 -0.000003 -0.000063 0.000097 0.000011 1.749929 0.000014 0.000019 0.000001 -0.000003 0.000002 0.699940 -1.166607 -0.466650 0.000019 -0.000003 -0.000029 -2.338574 -0.252539 -0.551513 -107.459435 28.841317 2.961612 0.000014 -0.000021 -10.744964 136.872647 -5.992919 22.220344 -0.000029 0.000051 -10.930836 -0.000017 -0.000010 -0.000003 -0.000003 -4.087254 -1.487641 0.000002 -0.000002 -0.000004 2.338577 -0.252529 -0.551465 -92.534337 -35.978790 3.366602 -0.000006 -0.000029 -10.744937 126.287111 10.831564 -32.810313 -0.000011 0.000018 -10.930862 0.000020 0.000000 0.000009 -0.000016 -4.087232 -1.487649 -0.000004 -0.000001 -0.000001 
0.000041 27.699772 32.303875 -12.846183 -1.060328 -17.061276 -0.000015 0.900094 1.860700 20.342610 1.595828 -0.960895 -0.000000 0.400277 2.270308 -0.000001 -0.000001 0.000005 0.000023 0.200886 2.296532 0.000001 -0.000000 0.000001 0.000020 -0.000027 2.305320 0.000013 0.000002 -0.112849 -0.000006 -0.864475 6.051475 4.188108 0.372908 179.198346 0.000015 -0.550442 3.121719 -0.000002 0.000001 -0.000005 -0.788279 -1.313730 4.256778 -123.452459 44.947928 -76.325404 -3.915079 -0.000004 -0.000035 -0.000000 -0.000001 -0.000000 -6.914881 -0.000007 -0.000006 0.000007 0.000008 -38.819090 -6.096191 -0.000015 0.000003 -0.000158 -0.000133 -0.000068 -1.749917 -0.000011 0.000016 -0.000003 0.000001 -0.000002 -0.699999 -1.166622 -0.466662 -0.000005 -0.000001 -0.000005 0.788261 -1.313785 4.256729 -118.766471 -37.472224 83.993719 3.915158 -0.000004 -0.000008 0.000002 -0.000001 0.000000 6.914917 -0.000021 -0.000013 -0.000010 -0.000002 22.795770 6.096195 0.000055 -0.000009 -0.000065 0.000093 0.000008 1.749929 0.000012 0.000023 -0.000002 -0.000003 0.000000 0.699942 -1.166611 -0.466660 0.000028 -0.000006 -0.000027 -2.338574 -0.252540 -0.551511 -107.238013 29.379239 3.035984 0.000014 -0.000017 -10.744969 136.745059 -6.117616 22.753372 -0.000026 0.000052 -10.930837 -0.000017 -0.000008 -0.000001 -0.000003 -4.087254 -1.487644 0.000002 0.000001 -0.000003 2.338577 -0.252527 -0.551456 -91.884035 -36.325063 3.445533 -0.000007 -0.000030 -10.744939 126.033765 10.749367 -33.246018 -0.000013 0.000020 -10.930858 0.000015 0.000003 0.000007 -0.000014 -4.087227 -1.487648 -0.000004 -0.000001 -0.000000 
0.000041 27.699768 32.303871 -12.756869 -1.052802 -17.051101 -0.000016 0.900095 1.860698 20.266215 1.586040 -0.974809 0.000001 0.400277 2.270314 -0.000003 -0.000001 0.000001 0.000023 0.200889 2.296538 0.000001 -0.000001 -0.000001 0.000021 -0.000024 2.305320 0.000017 0.000003 -0.164299 -0.000008 -0.864472 6.051474 3.896548 0.031397 179.281496 0.000017 -0.550437 3.121723 -0.000000 0.000001 -0.000005 -0.788281 -1.313731 4.256776 -123.127506 44.470925 -76.629846 -3.915075 -0.000001 -0.000034 -0.000002 0.000000 -0.000001 -6.914876 -0.000008 -0.000006 0.000007 0.000009 -38.196467 -6.096185 -0.000014 0.000000 -0.000155 -0.000130 -0.000069 -1.749920 -0.000012 0.000008 -0.000004 0.000000 -0.000000 -0.700005 -1.166624 -0.466660 -0.000003 -0.000003 0.000005 0.788262 -1.313786 4.256729 -118.460943 -35.819442 84.719044 3.915165 -0.000005 -0.000011 0.000003 -0.000002 0.000002 6.914907 -0.000023 -0.000013 -0.000008 -0.000003 21.951017 6.096198 0.000055 -0.000006 -0.000058 0.000091 0.000011 1.749932 0.000013 0.000022 0.000003 -0.000005 0.000002 0.699942 -1.166610 -0.466646 0.000026 -0.000006 -0.000029 -2.338574 -0.252540 -0.551513 -106.930498 29.767672 3.108565 0.000015 -0.000021 -10.744967 136.558062 -6.273831 23.187200 -0.000027 0.000051 -10.930840 -0.000022 -0.000010 -0.000002 -0.000003 -4.087255 -1.487641 0.000004 -0.000002 -0.000003 2.338574 -0.252524 -0.551462 -91.071816 -36.534508 3.520226 -0.000007 -0.000028 -10.744938 125.565405 10.663781 -33.606078 -0.000012 0.000016 -10.930858 0.000017 0.000003 0.000005 -0.000016 -4.087228 -1.487649 -0.000004 -0.000001 -0.000000 
0.000041 27.699770 32.303871 -12.674587 -0.958089 -17.033295 -0.000015 0.900093 1.860703 20.210350 1.449304 -0.936928 0.000001 0.400275 2.270313 -0.000000 -0.000001 0.000003 0.000022 0.200891 2.296536 0.000003 -0.000001 0.000002 0.000021 -0.000024 2.305324 0.000015 0.000003 -0.160947 -0.000006 -0.864479 6.051475 3.808262 0.025063 179.192731 0.000016 -0.550440 3.121719 -0.000002 0.000001 -0.000006 -0.788281 -1.313735 4.256771 -122.720440 44.020590 -77.161631 -3.915080 -0.000001 -0.000035 0.000001 -0.000001 -0.000000 -6.914878 -0.000002 -0.000006 0.000008 0.000011 -37.038719 -6.096188 -0.000020 0.000004 -0.000157 -0.000137 -0.000076 -1.749916 -0.000013 0.000016 -0.000002 0.000001 0.000002 -0.700000 -1.166624 -0.466652 0.000000 -0.000001 -0.000001 0.788265 -1.313792 4.256723 -118.110732 -34.558063 85.380834 3.915162 -0.000005 -0.000008 -0.000001 -0.000000 0.000002 6.914915 -0.000023 -0.000013 -0.000008 -0.000005 20.594593 6.096203 0.000056 -0.000007 -0.000063 0.000102 0.000008 1.749932 0.000014 0.000024 0.000002 -0.000002 -0.000003 0.699943 -1.166608 -0.466655 0.000023 -0.000004 -0.000027 -2.338575 -0.252539 -0.551511 -106.694686 29.901380 3.001514 0.000013 -0.000019 -10.744967 136.497082 -6.234134 23.284400 -0.000028 0.000050 -10.930840 -0.000019 -0.000013 -0.000000 -0.000004 -4.087257 -1.487643 0.000008 -0.000002 -0.000002 2.338575 -0.252528 -0.551458 -90.662019 -36.613526 3.398046 -0.000007 -0.000024 -10.744935 125.451273 10.553197 -33.712028 -0.000012 0.000018 -10.930859 0.000015 0.000006 0.000009 -0.000015 -4.087229 -1.487650 -0.000005 0.000000 0.000000 
0.000036 27.699770 32.303864 -12.546923 -0.925218 -17.199687 -0.000015 0.900095 1.860696 20.099539 1.464945 -0.911759 0.000001 0.400277 2.270312 -0.000001 -0.000002 0.000003 0.000022 0.200888 2.296535 0.000002 -0.000000 0.000003 0.000022 -0.000025 2.305327 0.000015 0.000001 -0.141852 -0.000007 -0.864481 6.051476 3.819623 -0.150030 179.389973 0.000015 -0.550441 3.121719 -0.000001 0.000001 -0.000005 -0.788278 -1.313739 4.256780 -122.231535 43.671284 -77.567276 -3.915082 0.000003 -0.000035 0.000000 0.000000 -0.000000 -6.914881 -0.000006 -0.000002 0.000006 0.000010 -36.520444 -6.096187 -0.000018 0.000001 -0.000158 -0.000132 -0.000069 -1.749922 -0.000012 0.000018 -0.000002 0.000003 -0.000003 -0.700005 -1.166625 -0.466653 -0.000001 -0.000001 0.000001 0.788261 -1.313793 4.256730 -118.008225 -33.981270 85.683904 3.915159 -0.000003 -0.000008 -0.000003 -0.000002 0.000000 6.914910 -0.000022 -0.000015 -0.000008 -0.000005 20.102171 6.096202 0.000052 -0.000003 -0.000064 0.000098 0.000009 1.749931 0.000016 0.000020 -0.000001 -0.000001 0.000004 0.699940 -1.166606 -0.466655 0.000023 -0.000005 -0.000026 -2.338574 -0.252538 -0.551516 -106.410106 29.750364 2.934937 0.000015 -0.000018 -10.744967 136.362022 -6.427496 23.217669 -0.000027 0.000051 -10.930839 -0.000020 -0.000008 -0.000003 -0.000003 -4.087259 -1.487641 0.000005 0.000001 -0.000003 2.338577 -0.252528 -0.551466 -90.311582 -36.663171 3.327761 -0.000006 -0.000026 -10.744938 125.357235 10.464249 -33.782170 -0.000012 0.000019 -10.930861 0.000015 0.000006 0.000009 -0.000017 -4.087230 -1.487648 -0.000004 0.000003 -0.000001 
0.000031 27.699770 32.303864 -12.391126 -0.968566 -17.371446 -0.000015 0.900095 1.860705 20.014356 1.454253 -0.920895 0.000001 0.400277 2.270317 -0.000002 -0.000001 0.000004 0.000023 0.200890 2.296537 0.000001 -0.000001 0.000000 0.000021 -0.000029 2.305320 0.000015 0.000004 -0.139435 -0.000006 -0.864480 6.051479 3.790550 0.028580 179.339744 0.000017 -0.550442 3.121712 -0.000001 0.000000 -0.000005 -0.788283 -1.313736 4.256784 -121.921909 44.095391 -77.848918 -3.915083 0.000001 -0.000035 -0.000001 -0.000000 0.000000 -6.914880 -0.000009 -0.000006 0.000010 0.000014 -35.901779 -6.096193 -0.000021 0.000001 -0.000155 -0.000136 -0.000074 -1.749918 -0.000010 0.000012 -0.000005 0.000000 0.000000 -0.700000 -1.166625 -0.466659 -0.000003 -0.000001 -0.000004 0.788262 -1.313794 4.256736 -117.956315 -33.878114 85.884807 3.915159 -0.000004 -0.000008 0.000000 -0.000002 0.000000 6.914916 -0.000022 -0.000015 -0.000008 -0.000006 19.574986 6.096204 0.000052 -0.000006 -0.000063 0.000095 0.000010 1.749929 0.000014 0.000019 0.000001 -0.000006 0.000003 0.699935 -1.166609 -0.466648 0.000028 -0.000010 -0.000024 -2.338574 -0.252539 -0.551508 -106.346735 29.701252 2.976332 0.000017 -0.000017 -10.744966 136.139891 -6.393987 23.254245 -0.000026 0.000050 -10.930841 -0.000019 -0.000011 -0.000004 -0.000005 -4.087255 -1.487646 0.000002 -0.000003 -0.000000 2.338577 -0.252526 -0.551456 -90.154583 -36.813333 3.381435 -0.000007 -0.000028 -10.744936 125.189595 10.225024 -33.917398 -0.000012 0.000023 -10.930862 0.000019 0.000006 0.000008 -0.000014 -4.087230 -1.487648 -0.000004 -0.000002 -0.000002 
